<?xml version="1.0" encoding="UTF-8"?>
<svg version="1.1" viewBox="0 0 2048 747" width="1017" height="371" xmlns="http://www.w3.org/2000/svg">
<path transform="translate(53,48)" d="m0 0 4 2 9 10 7 7 7 8 15 16 24 26 14 15 11 12 15 16 11 12 14 15 11 12 14 15 12 13 14 15 11 12 14 15 11 12 14 15 12 13 14 15 11 12 13 14 1-142 75-75 7-8 77-77h2l1 116 85-28 50-16 36-12h4v101l-1 77-9 3-192 47-111 27 182 47 81 21 46 12 4 2v166l-2 1-39-11-80-22-50-14v113l-7-6-14-14-8-7-24-24-8-7-25-25-8-7-24-24-8-7-26-26-8-7-4-2-39 18-113 52-115 53-16 7h-2v-174l40-17 91-38 36-15h2l-7-8-38-38-8-7-24-24-2-1v-2l-4-2-49-49-8-7-29-29zm9 22v168l17 17h2v2l8 7 35 35 8 7 34 34 8 7 37 37 8 7 35 35 8 7 37 37 8 7 28 28h1v-141l-7-7-7-8-7-7-7-8-28-30-11-12-14-15-12-13-14-15-11-12-14-15-11-12-15-16-11-12-14-15-11-12-14-15-11-12-14-15-11-12-15-16-11-12zm425-1-6 5-7 8-129 129v141l7-6 8-7 12-12 8-7 10-10 8-7 10-10 8-7 11-11 8-7 10-10 8-7 10-10 8-7 10-10 7-6v-149zm176 50-82 27-47 15-33 11-4 1-1 48-13 13-8 7-10 10-8 7-11 11-8 7-9 9-8 7-11 11-8 7-10 10-8 7-10 10-8 7-9 9 4 1 110-27 185-45 8-2v-161zm-318 250v144l73 20 178 49 61 17 7 1v-149l-18-5-178-46-81-21-38-10zm-117 45-86 36-79 33-1 1v155l21-9 36-17 24-11 35-16 41-19 113-52-2-4-6-6h-2v-2l-8-7-49-49-8-7-26-26zm129 111 6 7 12 12 8 7 25 25 8 7 25 25 8 7 25 25 8 7 10 10h2v-95l-87-24-47-13z" fill="#545151"/>
<path transform="translate(1334,265)" d="m0 0h17l11 4 7 4 2-7h15v97l-3 10-6 10-8 6-11 4-4 1h-18l-13-4-8-6-5-6-4-11v-3h18l5 8 4 3 7 2h11l10-4 4-5 2-6 1-13-14 7-5 1h-13l-13-4-9-7-6-9-4-10-1-5v-20l3-12 5-10 9-9 10-5zm6 17-10 5-6 7-3 9v16l4 11 8 7 8 3h10l12-4 5-4v-42l-5-4-10-4z" fill="#545151"/>
<path transform="translate(1101,52)" d="m0 0h20l21 55 16 42 10 26v2l-2 1h-16l-4-8-7-19v-2l-55 1-8 20-4 8h-17l-1-3 18-47 21-55zm9 26-20 53v2h42l-3-10-15-40-3-5z" fill="#545151"/>
<path transform="translate(949,229)" d="m0 0h20l16 4 10 6 6 5 7 10 4 12-1 4h-17l-8-13-5-4-9-4-4-1h-18l-11 4-8 6-6 8-4 9-2 10v16l4 16 7 11 8 6 8 4 4 1h18l11-4 8-6 5-8 2-4h19l-3 12-5 9-8 9-10 6-13 4-5 1h-20l-12-3-12-6-11-10-7-11-5-13-2-10v-24l4-16 6-12 11-12 11-7 11-4z" fill="#545151"/>
<path transform="translate(1225,52)" d="m0 0h18l1 81 3 12 6 9 9 5 11 2 12-1 9-4 5-4 5-10 2-10 1-80h18v83l-3 15-6 12-6 7-10 6-9 3-6 1h-21l-12-3-10-6-8-8-6-12-3-14z" fill="#545151"/>
<path transform="translate(894,52)" d="m0 0h19l23 62 12 32 2 4 15-41 19-51 3-6h18l-1 6-18 48-17 46-9 24-4 2h-15l-3-5-29-78-15-40z" fill="#545151"/>
<path transform="translate(1610,86)" d="m0 0h18l11 4 6 4 7 7 5 11 2 9v17h-66l4 13 5 7 8 4 12 1 10-3 5-5 4-6h16l-1 8-4 8-4 5-10 6-10 3h-19l-10-3-9-6-7-7-5-10-2-7-1-9v-10l2-12 4-10 9-10 9-6zm2 15-9 4-6 7-4 10v2h49l-2-10-6-9-5-3-4-1z" fill="#545151"/>
<path transform="translate(1241,265)" d="m0 0h19l11 4 8 6 7 9 4 12 1 7v13l-1 1h-63l-2 1 4 13 5 6 8 4 5 1h7l9-3 6-5 2-5h18l-2 9-5 8-8 7-10 4-5 1h-19l-11-4-9-6-6-7-5-11-2-8v-21l4-13 6-10 8-7 11-5zm2 15-8 4-7 8-3 8v3l47 1 1-1-1-9-5-8-5-4-5-2z" fill="#545151"/>
<path transform="translate(1438,265)" d="m0 0h19l11 4 9 6 6 9 4 10 1 5v17l-5 1h-61l4 13 5 7 8 4 5 1h8l9-3 5-5 3-5h17l-1 7-4 8-4 5-10 6-11 3h-18l-12-4-8-6-7-8-4-8-3-14v-13l3-14 6-11 8-8 10-5zm3 15-10 5-6 8-3 10h49l-2-10-5-8-6-4-3-1z" fill="#545151"/>
<path transform="translate(1057,265)" d="m0 0h21l12 4 8 6 7 8 4 8 2 8 1 12-2 17-4 9-6 9-9 7-10 4-4 1h-19l-12-4-8-6-8-9-5-12-2-12v-9l3-14 5-10 6-7 11-7zm5 16-8 3-6 5-5 9-2 15 2 12 6 10 7 5 6 2h11l8-3 7-6 4-8 1-5v-19l-4-10-9-8-6-2z" fill="#545151"/>
<path transform="translate(1388,86)" d="m0 0h17l9 4 8 7 4 8 1 4v68l-1 1h-16l-1-21-1-41-3-7-5-4-2-1h-13l-11 4-6 3-1 66-2 1h-16v-90h16l1 7 15-7z" fill="#545151"/>
<path transform="translate(1760,86)" d="m0 0h21l10 3 9 6 5 9 2 10h-18l-3-8-6-4-4-1h-12l-8 3-3 3-1 7 3 5 5 3 27 5 12 5 7 8 2 6v11l-4 10-8 7-10 4-5 1h-21l-11-3-9-6-4-5-4-11 1-4h16l4 8 5 4 7 2h10l8-2 5-4 1-2v-8l-4-4-8-3-22-4-10-4-7-6-4-10v-9l3-8 7-8 8-4z" fill="#545151"/>
<path transform="translate(2e3 87)" d="m0 0 18 1-10 26-22 56-17 43h-19l11-29 2-5-1-6-18-43-17-41v-1h19l16 38 11 27 5-12 17-43 4-10z" fill="#545151"/>
<path transform="translate(1873,66)" d="m0 0h18l1 21 24 1v16l-18 1h-6v47l3 6 7 2h14l1 1v16l-1 1h-18l-11-2-7-4-5-8-2-10v-50l-2 1h-13l-1-17h16z" fill="#545151"/>
<path transform="translate(1482,87)" d="m0 0 18 1 14 36 11 28 2-2 14-36 10-26h19l-10 26-15 38-10 25-5 1h-13l-5-11-22-56-8-20z" fill="#545151"/>
<path transform="translate(1019,52)" d="m0 0h18l1 1v124l-2 1h-16l-1-1z" fill="#545151"/>
<path transform="translate(1130,230)" d="m0 0 17 1v125h-18v-125z" fill="#545151"/>
<path transform="translate(1171,231)" d="m0 0h18v125h-18z" fill="#545151"/>
<path transform="translate(1678,87)" d="m0 0 15 1 1 7 14-6 13-2h4v17l-18 3-10 4h-2v66l-2 1h-15l-1-1v-89z" fill="#545151"/>
<path transform="translate(1825,88)" d="m0 0h19v89l-4 1h-14l-1-1z" fill="#545151"/>
<path transform="translate(1450,88)" d="m0 0h18l1 89-4 1h-14l-1-1z" fill="#545151"/>
<path transform="translate(1825,55)" d="m0 0h18l1 1v17h-19z" fill="#545151"/>
<path transform="translate(1450,55)" d="m0 0h18l1 1v17h-19z" fill="#545151"/>
</svg>
