<?xml version="1.0" encoding="UTF-8"?>
<svg version="1.1" viewBox="0 0 2048 290" width="768" height="109" xmlns="http://www.w3.org/2000/svg">
<path transform="translate(1879,2)" d="m0 0h27l19 3 16 5 13 7 12 11 8 9 1 2 2-7 5-24 1-1h65v275h-65l-3-8-5-18h-2l-8 7-12 9-16 8-13 4-22 3h-19l-15-2-15-4-15-6-15-8-14-10-13-12-9-10-11-16-8-16-6-16-4-19-1-7v-28l3-19 5-18 7-16 9-16 10-13 11-12 13-11 17-11 15-7 16-5zm16 68-14 3-13 5-12 8-8 7-8 10-8 15-4 13-1 8v14l3 14 5 12 9 13 9 9 14 9 14 6 16 3h12l16-3 15-6 13-9 11-11 9-14 5-15 1-4v-22l-4-16-9-17-11-12-7-6-14-8-16-5-6-1z" fill="#0456CE"/>
<path transform="translate(1423,2)" d="m0 0h28l19 3 20 6 17 8 12 8 11 9 14 14 10 14 9 16 7 18 4 16 2 14v30l-1 7-1 1h-209l6 15 7 12 10 11 14 9 16 6 11 2h25l17-4 15-6 13-9 5-4 4-5 5 2 16 13 14 11 11 9 3 2-1 4-11 13-10 9-14 10-15 8-19 7-17 4-16 2h-22l-18-2-20-5-16-6-17-9-16-12-12-11-11-13-10-16-8-17-6-21-2-12-1-11v-14l2-20 5-20 6-16 8-15 10-14 9-10 10-10 16-11 17-9 18-6 19-4zm2 65-15 4-14 7-11 9-8 9-8 14-1 6h136l-1-8-7-14-9-10-11-8-14-6-13-3z" fill="#0456CE"/>
<path transform="translate(415,2)" d="m0 0h28l24 4 21 7 16 8 11 7 13 10 15 15 11 15 9 16 7 18 4 16 2 16v20l-3 21-5 17-8 18-10 16-9 11-9 10-11 9-14 10-16 8-15 6-21 5-17 2h-17l-18-2-20-5-20-8-17-10-14-11-16-16-11-15-7-12-8-19-5-20-2-16v-18l3-21 6-20 10-21 9-13 8-10 13-13 13-10 19-11 15-6 13-4 16-3zm6 68-14 3-12 5-10 6-10 9-9 10-8 15-4 14-1 8v9l3 16 7 16 9 12 9 9 14 9 16 6 13 2h11l16-3 15-6 13-9 11-11 7-11 5-11 3-11 1-7v-12l-3-15-6-14-8-11-7-8-12-9-15-7-17-4z" fill="#0456CE"/>
<path transform="translate(601,7)" d="m0 0h70l1 1 1 167 3 15 7 14 8 8 14 7 14 3h15l14-3 10-4 12-9 8-12 5-15 2-13 1-158 1-1h70l1 2v271l-1 1-46 1h-24l-1-1-1-28-12 13-11 9-15 7-13 4-11 2-11 1h-13l-16-2-16-4-14-6-12-8-12-11-10-13-6-10-6-15-5-21-1-9z" fill="#0456CE"/>
<path transform="translate(1146)" d="m0 0h32l20 4 16 5 17 8 13 9 12 11 9 10 6 9v3l-31 16-22 12-9 4-9-12-8-7-12-6-14-3h-13l-10 2-8 4-5 6-1 4v7l4 8 9 6 12 5 24 7 32 9 20 8 13 7 12 9 7 7 9 14 5 14 2 11v19l-3 16-7 16-8 11-9 9-10 7-16 8-20 6-18 3-12 1h-22l-22-2-23-5-20-8-13-8-13-11-11-13-9-15v-4l31-16 19-10 11-6 3 1 5 9 9 10 10 7 12 5 9 2 9 1h14l15-3 9-5 4-6 1-7-3-9-8-7-16-7-58-17-19-8-14-8-10-8-9-10-7-12-4-12-2-15 1-18 4-16 8-15 9-11 12-10 16-9 21-7z" fill="#0456CE"/>
<path transform="translate(139)" d="m0 0h16l25 4 20 6 15 7 11 6 14 10 13 12 10 11 6 8v4l-21 12-24 14-14 8-4-2-7-8-9-8-15-8-13-4-7-1h-18l-14 3-12 5-12 8-6 6h-2l-2 4-6 8-8 16-3 12v22l4 15 7 14 11 13 10 8 16 8 15 4h22l15-4 16-8 9-7 8-8 5-7 12 6 28 17 17 10 4 4-7 10-11 13-7 7-17 13-16 9-16 7-17 5-19 3h-29l-19-3-14-4-16-6-18-10-13-10-10-9-8-8-10-13-9-15-7-16-6-21-2-8v-40l6-24 8-19 8-14 8-11 12-14 13-11 15-10 15-8 20-7 12-3z" fill="#0456CE"/>
<path transform="translate(1745)" d="m0 0h12l-1 10-11 55-1 1-17 1-16 4-10 5-9 8-7 11-5 14-2 11-1 161-49 1h-22l-1-2v-272l1-1h70l1 1 1 28 11-12 9-8 14-8 16-5z" fill="#0456CE"/>
<path transform="translate(1027)" d="m0 0h14l-8 42-5 24-18 1-16 4-11 6-10 10-8 16-3 13-1 9-1 156-10 1h-61v-274l1-1h70l1 30 7-9 9-9 11-7 10-5 17-5z" fill="#0456CE"/>
</svg>
