<?xml version="1.0" encoding="UTF-8"?>
<svg version="1.1" viewBox="0 0 1024 1024" width="1024" height="1024" xmlns="http://www.w3.org/2000/svg">
<path transform="translate(0)" d="m0 0h1024v1024h-1024z" fill="#FEFEFE"/>
<path transform="translate(402,352)" d="m0 0 4 1 7 9 11 12 7 8 12 13 7 8 13 15 9 10 3 7v11l-1 12 4 9 7 8 9 10 18 18 4-2 7-7 7-8 7-7 7-8 6-10 1-10-1-6v-14l4-12 10-16 14-15 11-10 15-11 14-8 3-1h8l9 6 12 11 6 5 1 2v12l-8 21-11 21-10 14-12 13-9 6-9 4-4 1-27 1-8 6-9 10-9 11-9 10-4 5 1 4 43 43 5 4v2l4 2 64 64 4 8v12l-4 6-6 3h-10l-8-3-10-9-9-11-8-9-9-11-9-10-9-11-14-17-12-14-11-13-11-14 1 17 9 80v12l-3 4-4-1 1-3v-12l-8-71-2-15-1-1-5 42-6 54 1 7-4-1-3-7 6-52 5-45v-8l-10 12-9 11-11 13-9 11-12 14-9 11-24 28-9 10-5 5-9 6-3 1h-11l-6-4-4-8 1-9 5-10 14-14 8-7 4-5 8-7 82-82-2-4-24-28-9-10-4-2h-17l-10-2-8-6-13-17-12-17-14-19-12-17-8-10-1-4 1-3h5l9 12 12 14 9 11 14 18 7 1 1-5-12-14-9-11-13-16-11-13-1-5 2-2 4 1 9 11 11 14 11 13 14 17 2 4v6l-4 5-4 2-9-1 13 17 5 6 10 4h19l8 4 13 14 9 11 24 28 8 10 9 10 8 10 11 13 8 10 11 13 9 11 12 14 9 11 13 15 11 12 8 4h10l4-4 1-6-3-9-7-8-8-7-72-72-8-7-6-7-2-1v-2l-4-2v-2l-4-2-6-7-40-40-7-8-4-5-4-9v-26l-3-5-13-15-4-4 1 2v6l-4 6-7 2-6-3-10-12-11-14-13-16-12-16 1-4 4-1 6 7 12 16 10 12 13 17 4 5v2l6-1 1-5-8-11-14-17-11-14-8-10-4-6 1-3z" fill="#303434"/>
<path transform="translate(621,363)" d="m0 0h7l9 7 11 10 4 4 1 3-3 12-8 19-10 18-9 12-9 10-9 7-11 4-11 1h-15l-7 3-6 5-1 2h-2l-2 4-10 11-9 11-6 7-3 1-5-6 7-8 14-15 11-12 6-12v-31l5-12 7-11 12-13 8-8 13-10 15-10z" fill="#FEFEFE"/>
<path transform="translate(196,320)" d="m0 0 36 18 22 12 25 13 2 3-7 12-5-1-27-14-22-12h-2l5 4 7 8 24 24-2 5-3 6-13-1-35-5h-4l29 15 24 12 3 1-3 9-3 6-5-1-39-20-25-13-20-11 8-18 17 2 43 7h3l-8-8-7-8-27-27 2-6 6-11z" fill="#303434"/>
<path transform="translate(679,191)" d="m0 0 8 4 15 10 10 7 6 7 3 9v8l-3 9-6 8-7 6-7 3h-10v13l-3 27-5-2-9-7-1-2 3-32v-5l-8-6h-2l-18 27h-3l-11-7 2-6 14-21 13-20 12-19z" fill="#303434"/>
<path transform="translate(839,348)" d="m0 0h4l11 31 1 8-2 10-6 9-9 7-10 3h-11l-10-4-8-7-5-10-3-10-32 12-5-12-1-4 11-5 35-13 26-10z" fill="#303434"/>
<path transform="translate(567,154)" d="m0 0 18 4 17 4 8 5 7 8 3 10v8l-2 9-6 10-8 6-6 2h-13l-17-4-8 30-9-1-8-2 9-34z" fill="#303434"/>
<path transform="translate(748,658)" d="m0 0 11 1 8 4 7 7 4 8v10l35 3 4 2-7 11-2 2-38-3-2 5-2 4 19 12 7 4-2 5-6 8-5-2-47-29-14-9-5-3 2-5 7-10 8-12 8-9z" fill="#303434"/>
<path transform="translate(332,719)" d="m0 0 5 2 11 9 13 10 6 10v14l-5 9-4 5-7 5-3 1h-12l-2 7-4 26-2 3-12-8 1-12 3-18v-7l-6-5-3-1-2 4-10 13-6 8-4-1-9-8 6-8 11-14 12-15 10-13z" fill="#303434"/>
<path transform="translate(354,186)" d="m0 0 4 1 25 25 8 7 12 12 8 7 16 16-3 3-12 5-12-12-2-1v-2l-6-2-21 12-2 1 4 18 1 5-8 5-7 3-2-5-18-78-2-11z" fill="#303434"/>
<path transform="translate(501,523)" d="m0 0h2l6 8-3 5-9 10-9 11-14 17-11 13-9 11-22 26-12 14-11 12-4 5-9 5h-10l-5-4-1-9 5-10 33-33h2l2-4 6-5 70-70z" fill="#FEFEFE"/>
<path transform="translate(270,238)" d="m0 0 4 2 8 8-2 4-22 22 2 4 10 10 4-2 19-19 7 6 4 4-1 4-19 19 2 4 11 11v2l5-1 24-24 7 6 4 4-2 4-35 35-7-6-59-59v-3l8-7z" fill="#303434"/>
<path transform="translate(776,262)" d="m0 0 7 6 9 11 9 10 9 11v4l-9 8-4-1-12-14-9-11-5 3-10 8 2 5 11 13 4 5v2l-11 9-5-5-9-10-6-7-8 6-10 8 6 8 12 14 4 5-2 4-9 7-6-5-8-10-12-14-8-10 2-4 13-11 14-11 14-12 14-11z" fill="#303434"/>
<path transform="translate(422,770)" d="m0 0 9 2 8 3-1 67-1 20-13-3-2-1v-22l-12-3-17-5-2 4-9 11-3 1-13-5 6-8 9-11 13-16 10-12 8-10 9-11z" fill="#303434"/>
<path transform="translate(629,759)" d="m0 0 1 2-15 45 19 12 13 8 16 10-3 2-12 5-4-1-36-22-1 5-1 4 9 23-1 3-11 4-3-1-30-75v-3l12-4 3 1 13 33 15-45z" fill="#303434"/>
<path transform="translate(691,717)" d="m0 0 4 2 6 9-9 8-13 10-4 3 2 4 8 10 4-2 14-11 5-4 4 2 6 9-10 9-12 9 4 7 8 9 4-2 14-11 9-7 3 1 7 9-2 4-26 20-10 8-7-6-18-22-14-17-11-14-4-5v-3l19-14 16-13z" fill="#303434"/>
<path transform="translate(515,784)" d="m0 0 13 1 10 4 10 9-1 3-9 7-4-1-6-5-7-2-10 1-7 4-5 6-3 9v13l4 11 4 5 8 4h13l8-5 5-4 12 9-6 7-9 6-8 3h-17l-10-4-6-4-5-5-4-5-4-9-2-8v-14l3-11 5-9 6-7 10-6 5-2z" fill="#303434"/>
<path transform="translate(254,547)" d="m0 0 4 1 5 25 7 23 10 24 11 20 8 12 13 17 12 14 19 19 14 11 12 9 20 12 27 13 30 10 24 5 26 3h34l19-2 25-5 21-6 25-10 21-11 14-9 14-10 13-11 10-9 11-11 9-11 10-13 10-15 10-18 9-19 9-27 5-22 2-9h3l-2 16-6 24-10 27-13 25-14 21-10 13-11 12-9 10-13 12-11 9-17 12-15 9-15 8-25 10-23 7-25 5-17 2h-42l-19-2-24-5-21-6-20-8-19-9-17-10-17-12-13-11-10-9-13-13-7-8-12-15-8-12-8-13-11-21-10-26-6-23z" fill="#303434"/>
<path transform="translate(499,257)" d="m0 0h27l22 2 26 5 21 6 21 8 19 9 20 12 18 13 15 13 22 22 8 10 11 15 9 14 8 14 11 25 6 18 5 20 2 13h-4l-6-28-8-24-9-20-11-20-13-19-13-16-16-17-11-10-17-13-15-10-16-9-16-8-24-9-27-7-19-3-26-2h-11l-28 2-19 3-24 6-20 7-26 12-20 12-14 10-11 9-10 9-5 5h-2l-2 4-8 8-9 11-11 15-11 18-12 23-8 21-6 22-4 19h-3v-7l4-18 6-20 6-16 9-19 13-22 16-21 9-11 20-20 11-9 13-10 17-11 23-12 19-8 22-7 21-5 22-3z" fill="#303434"/>
<path transform="translate(455,154)" d="m0 0h9l8 72v3l14-2 15-2h7l1 1 1 7v9l-50 5h-3l-10-85v-7z" fill="#303434"/>
<path transform="translate(278,649)" d="m0 0h2l10 16 15 22 7 11v2l-10 6h-3l-10-16-1-3-31 19-19 12-10 6-4-5-5-9 16-9 42-26v-3l-9-14v-3z" fill="#303434"/>
<path transform="translate(579,173)" d="m0 0 17 4 6 5 1 3v10l-4 6-4 3h-10l-12-3-1-2z" fill="#FEFEFE"/>
<path transform="translate(832,368)" d="m0 0h2l5 14-1 8-6 7-4 2h-10l-6-4-5-10-1-6 8-4z" fill="#FEFEFE"/>
<path transform="translate(685,213)" d="m0 0 5 2 11 8 3 5-1 9-6 7-2 1h-9l-14-9 1-5 10-15z" fill="#FEFEFE"/>
<path transform="translate(747,674)" d="m0 0h7l7 4 3 5-1 9-8 12-2 1-10-6-10-7 7-12z" fill="#FEFEFE"/>
<path transform="translate(335,739)" d="m0 0 5 2 10 8 2 4v6l-4 6-3 3-8 1-8-4-8-7 6-9z" fill="#FEFEFE"/>
<path transform="translate(234,511)" d="m0 0h85v5l-1 1h-83l-1-1z" fill="#303434"/>
<path transform="translate(706,511)" d="m0 0h84l1 5-19 1h-66z" fill="#303434"/>
<path transform="translate(835,506)" d="m0 0h9l5 5 1 2v6l-4 6-2 1h-9l-5-5-1-2v-6z" fill="#303434"/>
<path transform="translate(180,506)" d="m0 0h9l5 4 1 2v8l-4 5-2 1h-8l-6-5-1-7 3-5z" fill="#303434"/>
<path transform="translate(357,209)" d="m0 0 7 6 6 7 8 7 3 4v2l-14 7h-2l-4-13-4-16z" fill="#FEFEFE"/>
<path transform="translate(423,791)" d="m0 0h1v13l-1 17-8-1-11-4 6-9 9-11z" fill="#FEFEFE"/>
</svg>
