<?xml version="1.0" encoding="UTF-8"?>
<svg version="1.1" viewBox="0 0 2048 1902" width="4000" height="3716" xmlns="http://www.w3.org/2000/svg">
<path transform="translate(1413,4)" d="m0 0h4v351l44-15 177-58 43-14 68-22 29-9 57-19 50-16 49-16 6-2h5v537l-12 5-77 19-137 33-104 26-63 15-44 11-274 67-46 11-48 12-38 9-56 14-34 8-6 2 13 4 71 18 74 19 58 15 24 6 73 19 41 11 52 13 43 11 375 97 91 24 22 6 2 1v504l-20-4-102-28-58-16-79-22-34-9-21-6-59-16-24-7-48-13-55-15-10-3v88l-1 230-1 21-8-4-25-25-8-7-35-35-11-9-29-29-2-1v-4l-6-2-49-49-8-7-42-42-8-7-10-9-32-32-10-8-35-35-8-7-42-42-8-7-10-9-38-38-8-7-37-37-11-9-10-9-9 2-36 17-31 14-36 16-34 16-28 13-39 18-24 11-34 16-35 16-25 11-36 17-37 17-63 29-36 16-38 18-29 13-49 23-33 15-41 19-80 37-14 6-47 22-20 9h-8v-523l16-8 41-17 45-19 110-46 36-15 41-17 45-19 36-15 37-15 37-16 40-17 24-9-7-10-8-7-10-9-60-60-11-9-55-55-8-7-45-45-4-3v-3l-6-2-69-69-8-7-62-62-8-7-10-9-48-48-8-7-55-55-11-9-12-12-3-5v-581l4 1 8 6 9 9 7 8 14 14 9 11 13 13 7 8 7 7 7 8 14 15 11 12 5 5 12 14 9 9 7 8 7 7 7 8 11 12 42 45 12 13 28 30 11 12 12 13 15 16 12 13 11 12 7 7 7 8 16 17 9 10 29 31 14 15 9 10 14 15 12 13 13 14 7 8 15 16 14 15 12 13 11 12 12 13 15 16 28 30 12 13 11 12 14 15 12 13 15 16 7 8 32 34 11 12 28 30 9 10 14 15 12 13 15 16 12 13 10 11 7 8 16 17 15 16 12 13 11 12 15 16 4 5 1-65 1-293 1-72 220-220 7-8z"/>
</svg>
